<svg xmlns="http://www.w3.org/2000/svg" xmlns:xlink="http://www.w3.org/1999/xlink" width="1080" zoomAndPan="magnify" viewBox="0 0 810 809.999993" height="1080" preserveAspectRatio="xMidYMid meet" version="1.0"><defs><clipPath id="id1"><path d="M 20 81 L 770 81 L 770 809.9375 L 20 809.9375 Z M 20 81 " clip-rule="nonzero"/></clipPath><clipPath id="id2"><path d="M 0.269531 97 L 809.78125 97 L 809.78125 809.9375 L 0.269531 809.9375 Z M 0.269531 97 " clip-rule="nonzero"/></clipPath></defs><g clip-path="url(#id1)"><path fill="rgb(87.838745%, 88.238525%, 86.669922%)" d="M 137.667969 439.007812 L 62.425781 439.007812 C 59.421875 439.007812 56.996094 436.582031 56.996094 433.582031 L 56.996094 424.179688 C 56.996094 421.183594 59.421875 418.753906 62.425781 418.753906 L 137.667969 418.753906 C 140.667969 418.753906 143.09375 421.183594 143.09375 424.179688 L 143.09375 433.582031 C 143.09375 436.582031 140.667969 439.007812 137.667969 439.007812 Z M 20.222656 374.929688 L 20.222656 344.511719 L 36.714844 344.511719 L 36.714844 374.929688 C 36.714844 376.011719 35.835938 376.890625 34.753906 376.890625 L 22.183594 376.890625 C 21.101562 376.890625 20.222656 376.011719 20.222656 374.929688 Z M 156.800781 165.417969 L 156.691406 165.390625 L 156.691406 149.261719 C 156.691406 111.5625 126.128906 81 88.429688 81 C 50.726562 81 20.171875 111.5625 20.171875 149.261719 L 20.171875 180.816406 L 23.953125 180.816406 L 39.523438 236.113281 C 40.136719 238.28125 42.386719 239.539062 44.550781 238.933594 L 54.164062 236.226562 C 56.332031 235.613281 57.589844 233.363281 56.984375 231.199219 L 37.980469 163.734375 C 37.367188 161.574219 35.121094 160.316406 32.953125 160.921875 L 27.070312 162.578125 L 27.070312 152.21875 C 27.070312 118.046875 54.546875 96.203125 88.429688 96.203125 C 122.320312 96.203125 149.785156 118.046875 149.785156 152.21875 L 149.785156 163.445312 L 147.1875 162.710938 C 145.019531 162.105469 142.773438 163.363281 142.164062 165.53125 L 123.15625 232.988281 C 122.550781 235.15625 123.808594 237.402344 125.976562 238.015625 L 135.589844 240.722656 C 137.75 241.328125 140.003906 240.070312 140.617188 237.910156 L 159.613281 170.445312 C 160.226562 168.28125 158.960938 166.03125 156.800781 165.417969 Z M 338.230469 187.210938 L 340.667969 189.644531 L 359.480469 170.832031 L 357.046875 168.394531 Z M 359.289062 162.15625 L 356.855469 159.71875 L 338.042969 178.535156 L 340.476562 180.96875 Z M 747.871094 809.9375 L 55.140625 809.9375 C 55.140625 809.9375 105.386719 697.851562 163.207031 635.867188 C 221.023438 573.886719 183.132812 534.558594 223.503906 441.660156 C 331.761719 192.542969 501.363281 160.789062 638.894531 196.429688 C 872.050781 256.84375 584.75 420.570312 702.546875 451.714844 C 820.339844 482.859375 747.871094 809.9375 747.871094 809.9375 " fill-opacity="1" fill-rule="nonzero"/></g><path fill="rgb(33.329773%, 38.819885%, 44.709778%)" d="M 128.695312 654.210938 L 47.578125 654.210938 C 46.082031 654.210938 44.867188 655.425781 44.867188 656.917969 L 44.867188 663.050781 L 50.875 663.050781 L 56.320312 722.871094 L 119.957031 722.871094 L 125.402344 663.050781 L 131.410156 663.050781 L 131.410156 656.917969 C 131.410156 655.425781 130.195312 654.210938 128.695312 654.210938 Z M 411.679688 634.160156 C 411.679688 623.832031 401.792969 615.453125 389.601562 615.453125 C 377.410156 615.453125 367.523438 623.832031 367.523438 634.160156 C 367.523438 644.492188 377.410156 652.863281 389.601562 652.863281 C 401.792969 652.863281 411.679688 644.492188 411.679688 634.160156 Z M 543.777344 552.035156 L 553.625 572.457031 L 553.625 552.035156 Z M 586.425781 627.695312 L 585.875 637.167969 L 507.695312 662.984375 L 505.246094 655.015625 L 500.777344 716.761719 L 487.914062 717.167969 L 488.894531 708.074219 C 489.226562 706.5625 488.242188 705.085938 486.882812 705.085938 L 299.859375 705.085938 L 289.152344 621.117188 L 246.523438 668.179688 L 181.988281 630.859375 L 181.226562 618.285156 C 181.007812 614.5625 183.738281 611.316406 187.445312 610.90625 L 192.042969 610.398438 L 274.039062 502.507812 L 396.671875 455.792969 L 516.742188 495.988281 L 541.835938 548.015625 L 553.761719 548.015625 C 554.789062 548.015625 555.671875 548.394531 556.425781 549.152344 C 557.171875 549.90625 557.550781 550.804688 557.550781 551.847656 L 557.550781 575.613281 C 557.550781 576.65625 557.179688 577.554688 556.445312 578.300781 L 575.984375 618.828125 L 581.519531 620.574219 C 584.585938 621.542969 586.609375 624.476562 586.425781 627.695312 Z M 649.832031 241.875 L 664.261719 241.875 C 665.40625 241.875 666.335938 240.949219 666.335938 239.804688 L 666.335938 237.277344 L 647.761719 237.277344 L 647.761719 239.804688 C 647.761719 240.949219 648.683594 241.875 649.832031 241.875 Z M 435.941406 190.847656 C 439.566406 190.847656 442.511719 187.898438 442.511719 184.277344 C 442.511719 180.652344 439.566406 177.707031 435.941406 177.707031 C 432.324219 177.707031 429.371094 180.652344 429.371094 184.277344 C 429.371094 187.898438 432.324219 190.847656 435.941406 190.847656 Z M 428.734375 136.371094 L 268.882812 136.371094 L 268.882812 232.179688 L 428.734375 232.179688 Z M 614.011719 565.210938 C 613.453125 565.210938 612.988281 565.40625 612.601562 565.796875 C 612.214844 566.1875 612.027344 566.652344 612.027344 567.1875 L 612.027344 575.464844 L 608.054688 575.464844 L 608.054688 548.066406 L 598.074219 548.066406 C 597.523438 548.066406 597.050781 548.253906 596.664062 548.640625 C 596.277344 549.03125 596.089844 549.5 596.089844 550.050781 C 596.089844 550.601562 596.277344 551.070312 596.664062 551.453125 C 597.050781 551.839844 597.523438 552.035156 598.074219 552.035156 L 604.078125 552.035156 L 604.078125 575.464844 L 597.980469 575.464844 C 597.429688 575.464844 596.957031 575.65625 596.570312 576.035156 C 596.183594 576.414062 595.996094 576.871094 595.996094 577.40625 C 595.996094 577.957031 596.183594 578.433594 596.570312 578.835938 C 596.957031 579.234375 597.429688 579.4375 597.980469 579.4375 L 614.011719 579.4375 C 614.5625 579.4375 615.03125 579.25 615.414062 578.855469 C 615.800781 578.46875 615.996094 578.003906 615.996094 577.453125 L 615.996094 567.1875 C 615.996094 566.636719 615.800781 566.171875 615.414062 565.785156 C 615.03125 565.398438 614.5625 565.210938 614.011719 565.210938 Z M 582.871094 552.035156 L 570.769531 552.035156 L 570.769531 575.464844 L 582.871094 575.464844 Z M 585.675781 549.152344 C 586.421875 549.90625 586.800781 550.804688 586.800781 551.847656 L 586.800781 575.613281 C 586.800781 576.667969 586.421875 577.566406 585.675781 578.3125 C 584.921875 579.066406 584.023438 579.4375 582.96875 579.4375 L 570.625 579.4375 C 569.554688 579.4375 568.648438 579.066406 567.902344 578.3125 C 567.164062 577.566406 566.789062 576.667969 566.789062 575.613281 L 566.789062 551.847656 C 566.789062 550.804688 567.171875 549.90625 567.929688 549.152344 C 568.683594 548.394531 569.578125 548.015625 570.625 548.015625 L 583.011719 548.015625 C 584.035156 548.015625 584.921875 548.394531 585.675781 549.152344 Z M 734.496094 471.5 L 734.496094 478.734375 L 730.523438 478.734375 L 730.523438 467.433594 C 729.238281 466.214844 727.917969 465.050781 726.550781 463.9375 L 726.550781 478.734375 L 720.449219 478.734375 C 719.898438 478.734375 719.429688 478.925781 719.046875 479.304688 C 718.660156 479.683594 718.46875 480.140625 718.46875 480.675781 C 718.46875 481.226562 718.660156 481.703125 719.046875 482.105469 C 719.429688 482.503906 719.898438 482.707031 720.449219 482.707031 L 736.480469 482.707031 C 737.03125 482.707031 737.503906 482.519531 737.890625 482.125 C 738.277344 481.738281 738.464844 481.273438 738.464844 480.722656 L 738.464844 476.25 C 737.1875 474.605469 735.867188 473.019531 734.496094 471.5 Z M 705.339844 455.304688 L 693.238281 455.304688 L 693.238281 478.734375 L 705.339844 478.734375 Z M 709.035156 453.808594 C 709.179688 454.21875 709.269531 454.648438 709.269531 455.117188 L 709.269531 478.882812 C 709.269531 479.9375 708.894531 480.835938 708.148438 481.582031 C 707.398438 482.335938 706.492188 482.707031 705.4375 482.707031 L 693.09375 482.707031 C 692.023438 482.707031 691.117188 482.335938 690.378906 481.582031 C 689.632812 480.835938 689.265625 479.9375 689.265625 478.882812 L 689.265625 455.117188 C 689.265625 454.074219 689.644531 453.175781 690.398438 452.421875 C 691.15625 451.664062 692.054688 451.285156 693.09375 451.285156 L 701.027344 451.285156 C 701.527344 451.429688 702.027344 451.574219 702.546875 451.714844 C 704.777344 452.300781 706.933594 453.011719 709.035156 453.808594 Z M 676.09375 455.304688 L 663.988281 455.304688 L 663.988281 478.734375 L 676.09375 478.734375 Z M 678.894531 452.421875 C 679.648438 453.175781 680.019531 454.074219 680.019531 455.117188 L 680.019531 478.882812 C 680.019531 479.9375 679.648438 480.835938 678.894531 481.582031 C 678.148438 482.335938 677.246094 482.707031 676.1875 482.707031 L 663.851562 482.707031 C 662.773438 482.707031 661.871094 482.335938 661.132812 481.582031 C 660.390625 480.835938 660.019531 479.9375 660.019531 478.882812 L 660.019531 455.117188 C 660.019531 454.074219 660.398438 453.175781 661.15625 452.421875 C 661.910156 451.664062 662.808594 451.285156 663.851562 451.285156 L 676.238281 451.285156 C 677.261719 451.285156 678.148438 451.664062 678.894531 452.421875 Z M 648.742188 468.480469 C 648.191406 468.480469 647.71875 468.675781 647.332031 469.066406 C 646.945312 469.457031 646.757812 469.925781 646.757812 470.457031 L 646.757812 478.734375 L 642.785156 478.734375 L 642.785156 451.335938 L 632.804688 451.335938 C 632.25 451.335938 631.789062 451.523438 631.394531 451.910156 C 631.011719 452.300781 630.820312 452.769531 630.820312 453.320312 C 630.820312 453.871094 631.011719 454.339844 631.394531 454.722656 C 631.789062 455.109375 632.25 455.304688 632.804688 455.304688 L 638.8125 455.304688 L 638.8125 478.734375 L 632.710938 478.734375 C 632.160156 478.734375 631.6875 478.925781 631.300781 479.304688 C 630.921875 479.683594 630.726562 480.140625 630.726562 480.675781 C 630.726562 481.226562 630.921875 481.703125 631.300781 482.105469 C 631.6875 482.503906 632.160156 482.707031 632.710938 482.707031 L 648.742188 482.707031 C 649.292969 482.707031 649.761719 482.519531 650.144531 482.125 C 650.53125 481.738281 650.726562 481.273438 650.726562 480.722656 L 650.726562 470.457031 C 650.726562 469.90625 650.53125 469.441406 650.144531 469.054688 C 649.761719 468.667969 649.292969 468.480469 648.742188 468.480469 Z M 617.601562 455.304688 L 605.5 455.304688 L 605.5 478.734375 L 617.601562 478.734375 Z M 620.40625 452.421875 C 621.152344 453.175781 621.523438 454.074219 621.523438 455.117188 L 621.523438 478.882812 C 621.523438 479.9375 621.152344 480.835938 620.40625 481.582031 C 619.652344 482.335938 618.753906 482.707031 617.699219 482.707031 L 605.355469 482.707031 C 604.285156 482.707031 603.375 482.335938 602.636719 481.582031 C 601.894531 480.835938 601.523438 479.9375 601.523438 478.882812 L 601.523438 455.117188 C 601.523438 454.074219 601.902344 453.175781 602.660156 452.421875 C 603.414062 451.664062 604.3125 451.285156 605.355469 451.285156 L 617.742188 451.285156 C 618.765625 451.285156 619.652344 451.664062 620.40625 452.421875 Z M 570.484375 364.628906 L 582.582031 364.628906 L 582.582031 341.195312 L 570.484375 341.195312 Z M 570.339844 337.175781 L 582.726562 337.175781 C 583.75 337.175781 584.636719 337.554688 585.390625 338.3125 C 586.136719 339.066406 586.507812 339.96875 586.507812 341.007812 L 586.507812 364.773438 C 586.507812 365.828125 586.136719 366.726562 585.390625 367.480469 C 584.636719 368.226562 583.738281 368.597656 582.683594 368.597656 L 570.339844 368.597656 C 569.269531 368.597656 568.359375 368.226562 567.621094 367.480469 C 566.878906 366.726562 566.507812 365.828125 566.507812 364.773438 L 566.507812 341.007812 C 566.507812 339.96875 566.886719 339.066406 567.644531 338.3125 C 568.398438 337.554688 569.296875 337.175781 570.339844 337.175781 Z M 539.199219 364.628906 C 538.648438 364.628906 538.175781 364.816406 537.789062 365.195312 C 537.402344 365.574219 537.214844 366.03125 537.214844 366.570312 C 537.214844 367.117188 537.402344 367.59375 537.789062 367.996094 C 538.175781 368.394531 538.648438 368.597656 539.199219 368.597656 L 555.230469 368.597656 C 555.78125 368.597656 556.25 368.410156 556.632812 368.023438 C 557.019531 367.636719 557.214844 367.167969 557.214844 366.621094 L 557.214844 356.355469 C 557.214844 355.800781 557.019531 355.332031 556.632812 354.945312 C 556.25 354.558594 555.78125 354.371094 555.230469 354.371094 C 554.675781 354.371094 554.207031 354.566406 553.820312 354.957031 C 553.433594 355.355469 553.246094 355.816406 553.246094 356.355469 L 553.246094 364.628906 L 549.273438 364.628906 L 549.273438 337.226562 L 539.292969 337.226562 C 538.746094 337.226562 538.269531 337.421875 537.890625 337.808594 C 537.5 338.195312 537.308594 338.660156 537.308594 339.210938 C 537.308594 339.769531 537.5 340.234375 537.890625 340.617188 C 538.269531 341.007812 538.746094 341.195312 539.292969 341.195312 L 545.300781 341.195312 L 545.300781 364.628906 Z M 511.988281 364.628906 L 524.09375 364.628906 L 524.09375 341.195312 L 511.988281 341.195312 Z M 511.84375 337.175781 L 524.230469 337.175781 C 525.253906 337.175781 526.140625 337.554688 526.894531 338.3125 C 527.640625 339.066406 528.011719 339.96875 528.011719 341.007812 L 528.011719 364.773438 C 528.011719 365.828125 527.640625 366.726562 526.894531 367.480469 C 526.140625 368.226562 525.242188 368.597656 524.1875 368.597656 L 511.84375 368.597656 C 510.773438 368.597656 509.863281 368.226562 509.125 367.480469 C 508.382812 366.726562 508.015625 365.828125 508.015625 364.773438 L 508.015625 341.007812 C 508.015625 339.96875 508.390625 339.066406 509.148438 338.3125 C 509.90625 337.554688 510.804688 337.175781 511.84375 337.175781 Z M 490.777344 337.226562 L 480.796875 337.226562 C 480.25 337.226562 479.78125 337.421875 479.394531 337.808594 C 479.007812 338.195312 478.8125 338.660156 478.8125 339.210938 C 478.8125 339.769531 479.007812 340.234375 479.394531 340.617188 C 479.78125 341.007812 480.25 341.195312 480.796875 341.195312 L 486.804688 341.195312 L 486.804688 364.628906 L 480.703125 364.628906 C 480.152344 364.628906 479.683594 364.816406 479.300781 365.195312 C 478.914062 365.574219 478.71875 366.03125 478.71875 366.570312 C 478.71875 367.117188 478.914062 367.59375 479.300781 367.996094 C 479.683594 368.394531 480.152344 368.597656 480.703125 368.597656 L 496.734375 368.597656 C 497.285156 368.597656 497.757812 368.410156 498.136719 368.023438 C 498.53125 367.636719 498.71875 367.167969 498.71875 366.621094 L 498.71875 356.355469 C 498.71875 355.800781 498.53125 355.332031 498.136719 354.945312 C 497.757812 354.558594 497.285156 354.371094 496.734375 354.371094 C 496.183594 354.371094 495.714844 354.566406 495.332031 354.957031 C 494.945312 355.355469 494.75 355.816406 494.75 356.355469 L 494.75 364.628906 L 490.777344 364.628906 Z M 453.492188 364.628906 L 465.59375 364.628906 L 465.59375 341.195312 L 453.492188 341.195312 Z M 453.347656 337.175781 L 465.742188 337.175781 C 466.765625 337.175781 467.652344 337.554688 468.398438 338.3125 C 469.148438 339.066406 469.523438 339.96875 469.523438 341.007812 L 469.523438 364.773438 C 469.523438 365.828125 469.148438 366.726562 468.398438 367.480469 C 467.652344 368.226562 466.746094 368.597656 465.691406 368.597656 L 453.347656 368.597656 C 452.277344 368.597656 451.375 368.226562 450.632812 367.480469 C 449.886719 366.726562 449.519531 365.828125 449.519531 364.773438 L 449.519531 341.007812 C 449.519531 339.96875 449.898438 339.066406 450.652344 338.3125 C 451.410156 337.554688 452.308594 337.175781 453.347656 337.175781 Z M 422.214844 364.628906 C 421.65625 364.628906 421.1875 364.816406 420.804688 365.195312 C 420.417969 365.574219 420.226562 366.03125 420.226562 366.570312 C 420.226562 367.117188 420.417969 367.59375 420.804688 367.996094 C 421.1875 368.394531 421.65625 368.597656 422.214844 368.597656 L 438.238281 368.597656 C 438.789062 368.597656 439.261719 368.410156 439.648438 368.023438 C 440.035156 367.636719 440.230469 367.167969 440.230469 366.621094 L 440.230469 356.355469 C 440.230469 355.800781 440.035156 355.332031 439.648438 354.945312 C 439.261719 354.558594 438.789062 354.371094 438.238281 354.371094 C 437.6875 354.371094 437.21875 354.566406 436.835938 354.957031 C 436.449219 355.355469 436.253906 355.816406 436.253906 356.355469 L 436.253906 364.628906 L 432.28125 364.628906 L 432.28125 337.226562 L 422.300781 337.226562 C 421.753906 337.226562 421.285156 337.421875 420.898438 337.808594 C 420.511719 338.195312 420.324219 338.660156 420.324219 339.210938 C 420.324219 339.769531 420.511719 340.234375 420.898438 340.617188 C 421.285156 341.007812 421.753906 341.195312 422.300781 341.195312 L 428.308594 341.195312 L 428.308594 364.628906 Z M 392.964844 364.628906 C 392.410156 364.628906 391.941406 364.816406 391.554688 365.195312 C 391.175781 365.574219 390.980469 366.03125 390.980469 366.570312 C 390.980469 367.117188 391.175781 367.59375 391.554688 367.996094 C 391.941406 368.394531 392.410156 368.597656 392.964844 368.597656 L 408.996094 368.597656 C 409.546875 368.597656 410.015625 368.410156 410.402344 368.023438 C 410.785156 367.636719 410.980469 367.167969 410.980469 366.621094 L 410.980469 356.355469 C 410.980469 355.800781 410.785156 355.332031 410.402344 354.945312 C 410.015625 354.558594 409.546875 354.371094 408.996094 354.371094 C 408.441406 354.371094 407.972656 354.566406 407.585938 354.957031 C 407.199219 355.355469 407.003906 355.816406 407.003906 356.355469 L 407.003906 364.628906 L 403.035156 364.628906 L 403.035156 337.226562 L 393.058594 337.226562 C 392.503906 337.226562 392.035156 337.421875 391.65625 337.808594 C 391.265625 338.195312 391.074219 338.660156 391.074219 339.210938 C 391.074219 339.769531 391.265625 340.234375 391.65625 340.617188 C 392.035156 341.007812 392.503906 341.195312 393.058594 341.195312 L 399.066406 341.195312 L 399.066406 364.628906 Z M 365.753906 364.628906 L 377.859375 364.628906 L 377.859375 341.195312 L 365.753906 341.195312 Z M 362.890625 367.480469 C 362.148438 366.726562 361.78125 365.828125 361.78125 364.773438 L 361.78125 341.007812 C 361.78125 339.96875 362.15625 339.066406 362.914062 338.3125 C 363.671875 337.554688 364.566406 337.175781 365.609375 337.175781 L 377.996094 337.175781 C 379.019531 337.175781 379.90625 337.554688 380.660156 338.3125 C 381.40625 339.066406 381.777344 339.96875 381.777344 341.007812 L 381.777344 364.773438 C 381.777344 365.828125 381.40625 366.726562 380.660156 367.480469 C 379.90625 368.226562 379.007812 368.597656 377.953125 368.597656 L 365.609375 368.597656 C 364.539062 368.597656 363.628906 368.226562 362.890625 367.480469 Z M 693.289062 285.425781 L 681.175781 285.425781 L 681.175781 308.855469 L 693.289062 308.855469 Z M 693.382812 312.828125 L 681.039062 312.828125 C 679.96875 312.828125 679.058594 312.453125 678.320312 311.703125 C 677.578125 310.957031 677.207031 310.050781 677.207031 308.996094 L 677.207031 285.230469 C 677.207031 284.195312 677.585938 283.296875 678.34375 282.535156 C 679.097656 281.785156 679.996094 281.40625 681.039062 281.40625 L 693.425781 281.40625 C 694.453125 281.40625 695.335938 281.785156 696.089844 282.535156 C 696.835938 283.296875 697.207031 284.195312 697.207031 285.230469 L 697.207031 308.996094 C 697.207031 310.050781 696.835938 310.957031 696.089844 311.703125 C 695.335938 312.453125 694.4375 312.828125 693.382812 312.828125 Z M 664.527344 299.179688 C 664.136719 299.578125 663.945312 300.046875 663.945312 300.578125 L 663.945312 308.855469 L 659.972656 308.855469 L 659.972656 281.449219 L 649.996094 281.449219 C 649.445312 281.449219 648.96875 281.644531 648.589844 282.03125 C 648.199219 282.417969 648.007812 282.882812 648.007812 283.441406 C 648.007812 283.992188 648.199219 284.460938 648.589844 284.84375 C 648.96875 285.230469 649.445312 285.425781 649.996094 285.425781 L 656.003906 285.425781 L 656.003906 308.855469 L 649.898438 308.855469 C 649.347656 308.855469 648.882812 309.046875 648.488281 309.425781 C 648.109375 309.800781 647.914062 310.261719 647.914062 310.792969 C 647.914062 311.347656 648.109375 311.824219 648.488281 312.222656 C 648.882812 312.625 649.347656 312.828125 649.898438 312.828125 L 665.929688 312.828125 C 666.480469 312.828125 666.949219 312.632812 667.339844 312.246094 C 667.71875 311.859375 667.917969 311.394531 667.917969 310.84375 L 667.917969 300.578125 C 667.917969 300.027344 667.71875 299.5625 667.339844 299.175781 C 666.949219 298.78125 666.480469 298.59375 665.929688 298.59375 C 665.378906 298.59375 664.914062 298.789062 664.527344 299.179688 Z M 634.792969 285.425781 L 622.6875 285.425781 L 622.6875 308.855469 L 634.792969 308.855469 Z M 634.886719 312.828125 L 622.542969 312.828125 C 621.472656 312.828125 620.570312 312.453125 619.824219 311.703125 C 619.082031 310.957031 618.714844 310.050781 618.714844 308.996094 L 618.714844 285.230469 C 618.714844 284.195312 619.089844 283.296875 619.847656 282.535156 C 620.605469 281.785156 621.503906 281.40625 622.542969 281.40625 L 634.929688 281.40625 C 635.957031 281.40625 636.847656 281.785156 637.59375 282.535156 C 638.347656 283.296875 638.71875 284.195312 638.71875 285.230469 L 638.71875 308.996094 C 638.71875 310.050781 638.347656 310.957031 637.59375 311.703125 C 636.847656 312.453125 635.941406 312.828125 634.886719 312.828125 Z M 608.84375 312.246094 C 609.230469 311.859375 609.421875 311.394531 609.421875 310.84375 L 609.421875 300.578125 C 609.421875 300.027344 609.230469 299.5625 608.84375 299.175781 C 608.460938 298.78125 607.992188 298.59375 607.433594 298.59375 C 606.882812 298.59375 606.417969 298.789062 606.03125 299.179688 C 605.644531 299.578125 605.449219 300.046875 605.449219 300.578125 L 605.449219 308.855469 L 601.476562 308.855469 L 601.476562 281.449219 L 591.5 281.449219 C 590.949219 281.449219 590.480469 281.644531 590.09375 282.03125 C 589.707031 282.417969 589.511719 282.882812 589.511719 283.441406 C 589.511719 283.992188 589.707031 284.460938 590.09375 284.84375 C 590.480469 285.230469 590.949219 285.425781 591.5 285.425781 L 597.507812 285.425781 L 597.507812 308.855469 L 591.402344 308.855469 C 590.851562 308.855469 590.386719 309.046875 590 309.425781 C 589.613281 309.800781 589.417969 310.261719 589.417969 310.792969 C 589.417969 311.347656 589.613281 311.824219 590 312.222656 C 590.386719 312.625 590.851562 312.828125 591.402344 312.828125 L 607.433594 312.828125 C 607.992188 312.828125 608.460938 312.632812 608.84375 312.246094 Z M 576.296875 285.425781 L 564.191406 285.425781 L 564.191406 308.855469 L 576.296875 308.855469 Z M 576.441406 281.40625 C 577.464844 281.40625 578.351562 281.785156 579.097656 282.535156 C 579.851562 283.296875 580.222656 284.195312 580.222656 285.230469 L 580.222656 308.996094 C 580.222656 310.050781 579.851562 310.957031 579.097656 311.703125 C 578.351562 312.453125 577.445312 312.828125 576.390625 312.828125 L 564.050781 312.828125 C 562.976562 312.828125 562.074219 312.453125 561.332031 311.703125 C 560.585938 310.957031 560.21875 310.050781 560.21875 308.996094 L 560.21875 285.230469 C 560.21875 284.195312 560.601562 283.296875 561.351562 282.535156 C 562.109375 281.785156 563.007812 281.40625 564.050781 281.40625 Z M 532.914062 308.855469 C 532.363281 308.855469 531.890625 309.046875 531.503906 309.425781 C 531.117188 309.800781 530.929688 310.261719 530.929688 310.792969 C 530.929688 311.347656 531.117188 311.824219 531.503906 312.222656 C 531.890625 312.625 532.363281 312.828125 532.914062 312.828125 L 548.9375 312.828125 C 549.496094 312.828125 549.964844 312.632812 550.347656 312.246094 C 550.734375 311.859375 550.929688 311.394531 550.929688 310.84375 L 550.929688 300.578125 C 550.929688 300.027344 550.734375 299.5625 550.347656 299.175781 C 549.964844 298.78125 549.496094 298.59375 548.9375 298.59375 C 548.386719 298.59375 547.921875 298.789062 547.535156 299.179688 C 547.148438 299.578125 546.953125 300.046875 546.953125 300.578125 L 546.953125 308.855469 L 542.980469 308.855469 L 542.980469 281.449219 L 533.003906 281.449219 C 532.453125 281.449219 531.984375 281.644531 531.597656 282.03125 C 531.210938 282.417969 531.023438 282.882812 531.023438 283.441406 C 531.023438 283.992188 531.210938 284.460938 531.597656 284.84375 C 531.984375 285.230469 532.453125 285.425781 533.003906 285.425781 L 539.011719 285.425781 L 539.011719 308.855469 Z M 518.285156 299.179688 C 517.902344 299.578125 517.710938 300.046875 517.710938 300.578125 L 517.710938 308.855469 L 513.734375 308.855469 L 513.734375 281.449219 L 503.761719 281.449219 C 503.203125 281.449219 502.734375 281.644531 502.355469 282.03125 C 501.964844 282.417969 501.773438 282.882812 501.773438 283.441406 C 501.773438 283.992188 501.964844 284.460938 502.355469 284.84375 C 502.734375 285.230469 503.203125 285.425781 503.761719 285.425781 L 509.769531 285.425781 L 509.769531 308.855469 L 503.664062 308.855469 C 503.117188 308.855469 502.640625 309.046875 502.253906 309.425781 C 501.875 309.800781 501.679688 310.261719 501.679688 310.792969 C 501.679688 311.347656 501.875 311.824219 502.253906 312.222656 C 502.640625 312.625 503.117188 312.828125 503.664062 312.828125 L 519.695312 312.828125 C 520.246094 312.828125 520.714844 312.632812 521.101562 312.246094 C 521.488281 311.859375 521.683594 311.394531 521.683594 310.84375 L 521.683594 300.578125 C 521.683594 300.027344 521.488281 299.5625 521.101562 299.175781 C 520.714844 298.78125 520.246094 298.59375 519.695312 298.59375 C 519.148438 298.59375 518.671875 298.789062 518.285156 299.179688 Z M 488.558594 285.425781 L 476.453125 285.425781 L 476.453125 308.855469 L 488.558594 308.855469 Z M 488.695312 281.40625 C 489.722656 281.40625 490.605469 281.785156 491.359375 282.535156 C 492.105469 283.296875 492.480469 284.195312 492.480469 285.230469 L 492.480469 308.996094 C 492.480469 310.050781 492.105469 310.957031 491.359375 311.703125 C 490.605469 312.453125 489.707031 312.828125 488.652344 312.828125 L 476.308594 312.828125 C 475.238281 312.828125 474.328125 312.453125 473.589844 311.703125 C 472.847656 310.957031 472.476562 310.050781 472.476562 308.996094 L 472.476562 285.230469 C 472.476562 284.195312 472.855469 283.296875 473.613281 282.535156 C 474.367188 281.785156 475.265625 281.40625 476.308594 281.40625 Z M 562.902344 267.644531 L 575.003906 267.644531 L 575.003906 244.214844 L 562.902344 244.214844 Z M 560.035156 270.496094 C 559.296875 269.75 558.929688 268.84375 558.929688 267.789062 L 558.929688 244.023438 C 558.929688 242.988281 559.308594 242.089844 560.0625 241.328125 C 560.820312 240.578125 561.71875 240.199219 562.757812 240.199219 L 575.152344 240.199219 C 576.167969 240.199219 577.0625 240.578125 577.808594 241.328125 C 578.554688 242.089844 578.933594 242.988281 578.933594 244.023438 L 578.933594 267.789062 C 578.933594 268.84375 578.554688 269.75 577.808594 270.496094 C 577.0625 271.25 576.15625 271.621094 575.101562 271.621094 L 562.757812 271.621094 C 561.6875 271.621094 560.78125 271.25 560.035156 270.496094 Z M 531.625 267.644531 C 531.066406 267.644531 530.597656 267.839844 530.214844 268.21875 C 529.828125 268.59375 529.632812 269.046875 529.632812 269.585938 C 529.632812 270.136719 529.828125 270.617188 530.214844 271.015625 C 530.597656 271.417969 531.066406 271.621094 531.625 271.621094 L 547.648438 271.621094 C 548.199219 271.621094 548.671875 271.425781 549.058594 271.039062 C 549.445312 270.652344 549.640625 270.1875 549.640625 269.636719 L 549.640625 259.371094 C 549.640625 258.820312 549.445312 258.355469 549.058594 257.96875 C 548.671875 257.578125 548.199219 257.386719 547.648438 257.386719 C 547.097656 257.386719 546.628906 257.582031 546.246094 257.972656 C 545.859375 258.371094 545.664062 258.835938 545.664062 259.371094 L 545.664062 267.644531 L 541.691406 267.644531 L 541.691406 241.875 L 554.8125 241.875 C 555.953125 241.875 556.882812 240.949219 556.882812 239.804688 L 556.882812 237.277344 L 538.308594 237.277344 L 538.308594 239.804688 C 538.308594 239.957031 538.371094 240.097656 538.402344 240.242188 L 531.710938 240.242188 C 531.160156 240.242188 530.695312 240.4375 530.308594 240.824219 C 529.921875 241.210938 529.734375 241.683594 529.734375 242.234375 C 529.734375 242.785156 529.921875 243.253906 530.308594 243.636719 C 530.695312 244.023438 531.160156 244.214844 531.710938 244.214844 L 537.71875 244.214844 L 537.71875 267.644531 Z M 504.40625 267.644531 L 516.515625 267.644531 L 516.515625 244.214844 L 504.40625 244.214844 Z M 501.546875 270.496094 C 500.808594 269.75 500.433594 268.84375 500.433594 267.789062 L 500.433594 244.023438 C 500.433594 242.988281 500.8125 242.089844 501.574219 241.328125 C 502.324219 240.578125 503.222656 240.199219 504.265625 240.199219 L 516.65625 240.199219 C 517.679688 240.199219 518.566406 240.578125 519.3125 241.328125 C 520.0625 242.089844 520.4375 242.988281 520.4375 244.023438 L 520.4375 267.789062 C 520.4375 268.84375 520.0625 269.75 519.3125 270.496094 C 518.566406 271.25 517.667969 271.621094 516.605469 271.621094 L 504.265625 271.621094 C 503.191406 271.621094 502.285156 271.25 501.546875 270.496094 Z M 475.164062 267.644531 L 487.261719 267.644531 L 487.261719 244.214844 L 475.164062 244.214844 Z M 472.300781 270.496094 C 471.558594 269.75 471.1875 268.84375 471.1875 267.789062 L 471.1875 244.023438 C 471.1875 242.988281 471.566406 242.089844 472.324219 241.328125 C 473.078125 240.578125 473.976562 240.199219 475.019531 240.199219 L 487.40625 240.199219 C 488.429688 240.199219 489.316406 240.578125 490.070312 241.328125 C 490.816406 242.089844 491.1875 242.988281 491.1875 244.023438 L 491.1875 267.789062 C 491.1875 268.84375 490.816406 269.75 490.070312 270.496094 C 489.316406 271.25 488.417969 271.621094 487.363281 271.621094 L 475.019531 271.621094 C 473.949219 271.621094 473.039062 271.25 472.300781 270.496094 Z M 445.914062 267.644531 L 458.019531 267.644531 L 458.019531 244.214844 L 445.914062 244.214844 Z M 441.9375 244.023438 C 441.9375 242.988281 442.316406 242.089844 443.078125 241.328125 C 443.828125 240.578125 444.726562 240.199219 445.769531 240.199219 L 458.160156 240.199219 C 459.183594 240.199219 460.070312 240.578125 460.820312 241.328125 C 461.566406 242.089844 461.945312 242.988281 461.945312 244.023438 L 461.945312 267.789062 C 461.945312 268.84375 461.566406 269.75 460.820312 270.496094 C 460.070312 271.25 459.171875 271.621094 458.113281 271.621094 L 445.769531 271.621094 C 444.703125 271.621094 443.796875 271.25 443.050781 270.496094 C 442.3125 269.75 441.9375 268.84375 441.9375 267.789062 Z M 428.675781 267.644531 L 424.707031 267.644531 L 424.707031 240.242188 L 414.726562 240.242188 C 414.175781 240.242188 413.707031 240.4375 413.320312 240.824219 C 412.9375 241.210938 412.742188 241.683594 412.742188 242.234375 C 412.742188 242.785156 412.9375 243.253906 413.320312 243.636719 C 413.707031 244.023438 414.175781 244.214844 414.726562 244.214844 L 420.734375 244.214844 L 420.734375 267.644531 L 414.632812 267.644531 C 414.082031 267.644531 413.613281 267.839844 413.226562 268.21875 C 412.839844 268.59375 412.644531 269.046875 412.644531 269.585938 C 412.644531 270.136719 412.839844 270.617188 413.226562 271.015625 C 413.613281 271.417969 414.082031 271.621094 414.632812 271.621094 L 430.664062 271.621094 C 431.210938 271.621094 431.679688 271.425781 432.066406 271.039062 C 432.457031 270.652344 432.648438 270.1875 432.648438 269.636719 L 432.648438 259.371094 C 432.648438 258.820312 432.457031 258.355469 432.066406 257.96875 C 431.679688 257.578125 431.210938 257.386719 430.664062 257.386719 C 430.113281 257.386719 429.644531 257.582031 429.257812 257.972656 C 428.867188 258.371094 428.675781 258.835938 428.675781 259.371094 Z M 385.382812 267.644531 C 384.832031 267.644531 384.363281 267.839844 383.980469 268.21875 C 383.59375 268.59375 383.398438 269.046875 383.398438 269.585938 C 383.398438 270.136719 383.59375 270.617188 383.980469 271.015625 C 384.363281 271.417969 384.832031 271.621094 385.382812 271.621094 L 401.414062 271.621094 C 401.964844 271.621094 402.433594 271.425781 402.824219 271.039062 C 403.210938 270.652344 403.398438 270.1875 403.398438 269.636719 L 403.398438 259.371094 C 403.398438 258.820312 403.210938 258.355469 402.824219 257.96875 C 402.433594 257.578125 401.964844 257.386719 401.414062 257.386719 C 400.863281 257.386719 400.394531 257.582031 400.011719 257.972656 C 399.625 258.371094 399.429688 258.835938 399.429688 259.371094 L 399.429688 267.644531 L 395.457031 267.644531 L 395.457031 240.242188 L 385.476562 240.242188 C 384.929688 240.242188 384.460938 240.4375 384.074219 240.824219 C 383.6875 241.210938 383.492188 241.683594 383.492188 242.234375 C 383.492188 242.785156 383.6875 243.253906 384.074219 243.636719 C 384.460938 244.023438 384.929688 244.214844 385.476562 244.214844 L 391.484375 244.214844 L 391.484375 267.644531 Z M 354.199219 254.8125 L 354.199219 267.789062 C 354.199219 268.84375 354.566406 269.75 355.3125 270.496094 C 356.054688 271.25 356.957031 271.621094 358.027344 271.621094 L 370.371094 271.621094 C 371.425781 271.621094 372.332031 271.25 373.078125 270.496094 C 373.828125 269.75 374.203125 268.84375 374.203125 267.789062 L 374.203125 244.023438 C 374.203125 242.988281 373.828125 242.089844 373.078125 241.328125 C 372.835938 241.082031 372.570312 240.894531 372.292969 240.722656 C 370.710938 241.867188 369.144531 243.039062 367.570312 244.214844 L 370.273438 244.214844 L 370.273438 267.644531 L 358.171875 267.644531 L 358.171875 251.554688 C 356.851562 252.625 355.523438 253.710938 354.199219 254.8125 Z M 75.851562 337.761719 L 82.804688 337.761719 L 82.804688 326.007812 L 83.890625 326.007812 L 83.890625 337.761719 L 90.132812 337.761719 C 92.0625 337.761719 93.667969 337.214844 94.914062 336.125 C 96.195312 335 96.875 333.449219 96.875 331.648438 C 96.875 330.238281 96.449219 329.035156 95.648438 328.125 C 96.414062 327.0625 96.613281 325.949219 96.613281 325.070312 C 96.613281 323.351562 95.949219 321.847656 94.699219 320.726562 C 93.457031 319.621094 91.636719 319.082031 89.128906 319.082031 L 73.496094 319.082031 L 73.496094 326.007812 L 75.851562 326.007812 Z M 65.9375 325.722656 L 63.996094 325.722656 L 63.996094 319.082031 L 72.679688 319.082031 L 72.679688 337.761719 L 65.9375 337.761719 L 65.9375 325.722656 " fill-opacity="1" fill-rule="nonzero"/><path fill="rgb(94.509888%, 83.139038%, 60.389709%)" d="M 427.753906 447.996094 L 427.753906 467.882812 L 437.371094 475.359375 C 437.371094 475.359375 404.460938 511.574219 392.566406 511.574219 C 380.746094 511.574219 348.394531 478.222656 348.394531 478.222656 L 359.347656 470.320312 L 359.347656 450.242188 C 354.625 445.363281 351.644531 438.875 351.289062 430.761719 L 350.417969 409.445312 C 344.042969 410.027344 333.785156 391.707031 339.28125 383.066406 C 342.394531 378.179688 346.363281 381.46875 349.445312 385.710938 L 348.335938 358.550781 C 347.914062 349.070312 355.488281 341.160156 364.976562 341.160156 L 420.171875 341.160156 C 429.65625 341.160156 437.226562 349.070312 436.808594 358.550781 L 435.40625 392.855469 C 437.5 387.101562 442.398438 375.972656 446.914062 383.066406 C 452.71875 392.191406 440.9375 412.140625 434.742188 409.160156 L 433.855469 430.761719 C 433.550781 437.6875 431.328125 443.421875 427.753906 447.996094 Z M 241.9375 665.53125 L 187.367188 633.96875 L 163.703125 668.1875 L 163.65625 668.179688 L 154.359375 681.941406 C 145.316406 695.335938 159.304688 725.296875 175.386719 726.960938 L 319.40625 730.628906 L 320.171875 723.199219 L 278.390625 723.199219 L 277.054688 709.367188 C 276.566406 707.199219 277.992188 705.085938 279.933594 705.085938 L 322.042969 705.085938 L 324.140625 684.742188 L 234.578125 675.503906 Z M 571.140625 728.257812 L 487.816406 718.070312 L 488.894531 708.074219 C 489.226562 706.5625 488.242188 705.085938 486.882812 705.085938 L 428.390625 705.085938 L 430.183594 664.683594 L 517.933594 668.578125 L 513.808594 660.964844 L 577.128906 640.058594 L 596.988281 683.578125 L 598.535156 686.8125 C 605.523438 701.386719 587.285156 728.972656 571.140625 728.257812 " fill-opacity="1" fill-rule="nonzero"/><g clip-path="url(#id2)"><path fill="rgb(2.749634%, 7.449341%, 12.548828%)" d="M 114.550781 673.46875 L 114.550781 678.75 C 114.550781 679.695312 115.320312 680.46875 116.269531 680.46875 C 117.21875 680.46875 117.988281 679.695312 117.988281 678.75 L 117.988281 673.46875 C 117.988281 672.519531 117.21875 671.746094 116.269531 671.746094 C 115.320312 671.746094 114.550781 672.519531 114.550781 673.46875 Z M 109.722656 678.75 L 109.722656 673.46875 C 109.722656 672.519531 108.953125 671.746094 107.996094 671.746094 C 107.050781 671.746094 106.277344 672.519531 106.277344 673.46875 L 106.277344 678.75 C 106.277344 679.695312 107.050781 680.46875 107.996094 680.46875 C 108.953125 680.46875 109.722656 679.695312 109.722656 678.75 Z M 101.457031 678.75 L 101.457031 673.46875 C 101.457031 672.519531 100.6875 671.746094 99.738281 671.746094 C 98.785156 671.746094 98.011719 672.519531 98.011719 673.46875 L 98.011719 678.75 C 98.011719 679.695312 98.785156 680.46875 99.738281 680.46875 C 100.6875 680.46875 101.457031 679.695312 101.457031 678.75 Z M 93.1875 678.75 L 93.1875 673.46875 C 93.1875 672.519531 92.414062 671.746094 91.46875 671.746094 C 90.511719 671.746094 89.746094 672.519531 89.746094 673.46875 L 89.746094 678.75 C 89.746094 679.695312 90.511719 680.46875 91.46875 680.46875 C 92.414062 680.46875 93.1875 679.695312 93.1875 678.75 Z M 84.921875 678.75 L 84.921875 673.46875 C 84.921875 672.519531 84.15625 671.746094 83.203125 671.746094 C 82.253906 671.746094 81.480469 672.519531 81.480469 673.46875 L 81.480469 678.75 C 81.480469 679.695312 82.253906 680.46875 83.203125 680.46875 C 84.15625 680.46875 84.921875 679.695312 84.921875 678.75 Z M 76.65625 678.75 L 76.65625 673.46875 C 76.65625 672.519531 75.886719 671.746094 74.929688 671.746094 C 73.980469 671.746094 73.210938 672.519531 73.210938 673.46875 L 73.210938 678.75 C 73.210938 679.695312 73.980469 680.46875 74.929688 680.46875 C 75.886719 680.46875 76.65625 679.695312 76.65625 678.75 Z M 68.390625 678.75 L 68.390625 673.46875 C 68.390625 672.519531 67.621094 671.746094 66.671875 671.746094 C 65.714844 671.746094 64.945312 672.519531 64.945312 673.46875 L 64.945312 678.75 C 64.945312 679.695312 65.714844 680.46875 66.671875 680.46875 C 67.621094 680.46875 68.390625 679.695312 68.390625 678.75 Z M 60.121094 673.46875 C 60.121094 672.519531 59.347656 671.746094 58.398438 671.746094 C 57.449219 671.746094 56.679688 672.519531 56.679688 673.46875 L 56.679688 678.75 C 56.679688 679.695312 57.449219 680.46875 58.398438 680.46875 C 59.347656 680.46875 60.121094 679.695312 60.121094 678.75 Z M 61.316406 688.632812 L 111.417969 688.632812 C 112.375 688.632812 113.144531 687.859375 113.144531 686.914062 C 113.144531 685.957031 112.375 685.1875 111.417969 685.1875 L 61.316406 685.1875 C 60.359375 685.1875 59.59375 685.957031 59.59375 686.914062 C 59.59375 687.859375 60.359375 688.632812 61.316406 688.632812 Z M 415.777344 380.929688 C 412.644531 380.910156 409.578125 381.703125 407.117188 383.308594 C 406.320312 383.832031 406.101562 384.902344 406.617188 385.699219 C 407.136719 386.488281 408.207031 386.714844 409.003906 386.191406 C 410.855469 384.976562 413.296875 384.289062 415.699219 384.371094 C 418.101562 384.425781 420.5 385.199219 422.285156 386.496094 C 422.585938 386.714844 422.941406 386.824219 423.289062 386.824219 C 423.828125 386.824219 424.34375 386.578125 424.6875 386.117188 C 425.242188 385.34375 425.070312 384.269531 424.308594 383.710938 C 421.933594 381.988281 418.90625 381 415.777344 380.929688 Z M 372.945312 381.289062 C 369.8125 381.101562 366.707031 381.859375 364.160156 383.378906 C 363.34375 383.863281 363.078125 384.921875 363.566406 385.738281 C 364.046875 386.550781 365.101562 386.816406 365.925781 386.335938 C 367.859375 385.179688 370.339844 384.609375 372.746094 384.730469 C 375.132812 384.863281 377.472656 385.71875 379.167969 387.066406 C 379.484375 387.316406 379.863281 387.4375 380.234375 387.4375 C 380.742188 387.4375 381.242188 387.214844 381.582031 386.792969 C 382.175781 386.046875 382.050781 384.964844 381.3125 384.371094 C 379.039062 382.5625 376.066406 381.46875 372.945312 381.289062 Z M 378.054688 439.945312 C 377.902344 440.882812 378.535156 441.765625 379.46875 441.925781 C 379.898438 441.992188 386.730469 443.101562 394.4375 443.101562 C 398.453125 443.101562 402.710938 442.796875 406.421875 441.898438 C 407.347656 441.671875 407.914062 440.742188 407.6875 439.820312 C 407.464844 438.894531 406.53125 438.320312 405.613281 438.554688 C 395.457031 441.019531 380.183594 438.554688 380.03125 438.527344 C 379.078125 438.359375 378.207031 439.007812 378.054688 439.945312 Z M 195.996094 615.300781 C 196.375 615.476562 234.199219 632.617188 245.269531 644.351562 C 245.605469 644.707031 246.0625 644.890625 246.515625 644.890625 C 246.941406 644.890625 247.371094 644.738281 247.707031 644.421875 C 248.394531 643.769531 248.425781 642.683594 247.773438 641.988281 C 236.246094 629.761719 198.992188 612.878906 197.410156 612.164062 C 196.539062 611.773438 195.527344 612.164062 195.132812 613.023438 C 194.742188 613.890625 195.128906 614.914062 195.996094 615.300781 Z M 510.179688 647.4375 C 510.597656 647.4375 511.019531 647.285156 511.355469 646.976562 C 529.878906 629.6875 567.910156 621.695312 568.289062 621.613281 C 569.21875 621.421875 569.820312 620.511719 569.628906 619.582031 C 569.441406 618.644531 568.523438 618.050781 567.59375 618.242188 C 566 618.570312 528.242188 626.5 509.003906 644.460938 C 508.308594 645.105469 508.269531 646.199219 508.921875 646.894531 C 509.257812 647.253906 509.71875 647.4375 510.179688 647.4375 Z M 434.664062 370.007812 C 434.835938 366.40625 431.472656 363.671875 427.980469 364.570312 L 395.394531 372.992188 C 395.394531 372.992188 374.492188 367.898438 360.902344 364.632812 C 355.671875 363.382812 350.664062 367.371094 350.710938 372.746094 L 350.828125 387.28125 L 351.921875 390.019531 C 352.632812 389.03125 353.789062 388.386719 355.097656 388.386719 L 386.003906 388.386719 C 388.152344 388.386719 389.90625 390.136719 389.90625 392.289062 L 389.90625 392.492188 L 398.519531 392.492188 L 398.519531 391.902344 C 398.519531 389.96875 400.09375 388.386719 402.027344 388.386719 L 433.71875 388.386719 C 433.75 388.386719 433.773438 388.398438 433.804688 388.398438 Z M 433.785156 397.917969 C 433.75 398.0625 433.703125 398.214844 433.671875 398.351562 L 433.332031 398.523438 L 433.640625 391.902344 L 402.027344 391.832031 L 401.964844 410.957031 L 433.71875 411.019531 L 433.785156 410.957031 Z M 386.457031 392.289062 C 386.457031 392.042969 386.257812 391.832031 386.003906 391.832031 L 355.097656 391.832031 C 354.839844 391.832031 354.636719 392.042969 354.636719 392.289062 L 354.636719 410.5625 C 354.636719 410.816406 354.839844 411.019531 355.097656 411.019531 L 386.003906 411.019531 C 386.257812 411.019531 386.457031 410.816406 386.457031 410.5625 Z M 443.398438 324.761719 C 450.808594 336.636719 451.671875 355.90625 445.050781 381.140625 C 444.355469 380.746094 443.65625 380.714844 442.96875 380.9375 L 437.226562 395.335938 L 437.226562 410.957031 C 437.226562 412.890625 435.652344 414.464844 433.71875 414.464844 L 402.027344 414.464844 C 400.09375 414.464844 398.519531 412.890625 398.519531 410.957031 L 398.519531 395.929688 L 389.90625 395.929688 L 389.90625 410.5625 C 389.90625 412.714844 388.152344 414.464844 386.003906 414.464844 L 355.097656 414.464844 C 352.949219 414.464844 351.195312 412.714844 351.195312 410.5625 L 351.195312 396.492188 C 350.875 396.308594 350.609375 396.011719 350.460938 395.644531 L 344.664062 381.113281 C 343.46875 380.53125 342.265625 380.4375 341.128906 381.132812 C 336.519531 367.648438 332.324219 348.925781 337.71875 334.722656 C 356.84375 284.351562 415.730469 317.015625 415.730469 317.015625 C 415.730469 317.015625 434.703125 310.828125 443.398438 324.761719 Z M 685.988281 165.070312 C 685.464844 165.867188 685.6875 166.9375 686.484375 167.453125 C 686.773438 167.648438 687.101562 167.738281 687.425781 167.738281 C 687.988281 167.738281 688.539062 167.46875 688.867188 166.96875 C 715.902344 125.875 689.910156 97.902344 689.644531 97.625 C 688.988281 96.941406 687.898438 96.917969 687.210938 97.574219 C 686.519531 98.234375 686.503906 99.320312 687.160156 100.007812 C 687.40625 100.261719 711.53125 126.246094 685.988281 165.070312 Z M 674.921875 162.230469 C 675.214844 162.425781 675.542969 162.515625 675.867188 162.515625 C 676.429688 162.515625 676.980469 162.242188 677.308594 161.738281 C 698.511719 129.515625 678.078125 107.527344 677.871094 107.3125 C 677.210938 106.625 676.132812 106.597656 675.441406 107.257812 C 674.753906 107.910156 674.726562 109.003906 675.378906 109.691406 C 676.148438 110.5 694.085938 129.984375 674.429688 159.847656 C 673.90625 160.644531 674.125 161.710938 674.921875 162.230469 Z M 663.484375 152.789062 C 663.78125 152.984375 664.109375 153.074219 664.433594 153.074219 C 664.988281 153.074219 665.539062 152.800781 665.867188 152.296875 C 679.691406 131.300781 666.296875 116.894531 666.160156 116.753906 C 665.5 116.066406 664.417969 116.039062 663.738281 116.699219 C 663.046875 117.351562 663.023438 118.4375 663.667969 119.125 C 664.148438 119.632812 675.257812 131.769531 662.996094 150.40625 C 662.472656 151.203125 662.691406 152.269531 663.484375 152.789062 Z M 615.066406 168.945312 C 615.394531 168.945312 615.71875 168.859375 616.015625 168.660156 C 616.804688 168.144531 617.027344 167.074219 616.503906 166.277344 C 591.019531 127.550781 614.335938 102.273438 615.339844 101.210938 C 615.992188 100.523438 615.964844 99.433594 615.277344 98.78125 C 614.59375 98.125 613.503906 98.152344 612.847656 98.832031 C 612.582031 99.113281 586.589844 127.082031 613.625 168.175781 C 613.960938 168.675781 614.503906 168.945312 615.066406 168.945312 Z M 625.191406 162.945312 C 625.519531 163.449219 626.066406 163.722656 626.628906 163.722656 C 626.949219 163.722656 627.277344 163.628906 627.570312 163.4375 C 628.367188 162.914062 628.589844 161.851562 628.0625 161.054688 C 608.414062 131.191406 626.335938 111.714844 627.113281 110.898438 C 627.765625 110.210938 627.746094 109.121094 627.058594 108.464844 C 626.367188 107.808594 625.28125 107.832031 624.621094 108.523438 C 624.414062 108.738281 603.980469 130.726562 625.191406 162.945312 Z M 638.0625 154.28125 C 638.382812 154.28125 638.710938 154.191406 639.011719 153.996094 C 639.800781 153.472656 640.023438 152.410156 639.496094 151.613281 C 627.234375 132.976562 638.339844 120.851562 638.828125 120.339844 C 639.476562 119.652344 639.453125 118.5625 638.769531 117.90625 C 638.082031 117.25 636.992188 117.273438 636.335938 117.964844 C 636.195312 118.101562 622.808594 132.507812 636.625 153.503906 C 636.953125 154.007812 637.503906 154.28125 638.0625 154.28125 Z M 131.410156 663.050781 L 44.867188 663.050781 L 51.195312 669.433594 L 125.078125 669.433594 Z M 134.792969 564.128906 C 134.792969 559.371094 130.941406 555.519531 126.183594 555.519531 C 121.429688 555.519531 117.578125 559.371094 117.578125 564.128906 L 117.578125 592.90625 L 106.296875 592.90625 L 106.296875 547.4375 C 106.296875 540.964844 101.046875 535.707031 94.566406 535.707031 L 83.269531 535.707031 C 76.789062 535.707031 71.539062 540.964844 71.539062 547.4375 L 71.539062 611.609375 L 62.445312 611.609375 L 62.445312 582.820312 C 62.445312 578.066406 58.59375 574.214844 53.839844 574.214844 C 49.089844 574.214844 45.234375 578.066406 45.234375 582.820312 L 45.234375 612.277344 C 45.234375 621.402344 52.65625 628.820312 61.78125 628.820312 L 71.539062 628.820312 L 71.539062 654.210938 L 106.296875 654.210938 L 106.296875 610.128906 L 118.242188 610.128906 C 127.367188 610.128906 134.792969 602.703125 134.792969 593.578125 Z M 695.007812 659.59375 L 695.007812 694.203125 L 700.230469 694.203125 C 701.125 694.203125 701.921875 693.640625 702.21875 692.800781 L 707.144531 678.898438 C 709.167969 673.203125 709.476562 667.082031 708.042969 661.199219 C 707.8125 660.257812 706.972656 659.59375 706 659.59375 Z M 695.007812 650.988281 L 706 650.988281 C 710.949219 650.988281 715.230469 654.351562 716.40625 659.164062 C 718.234375 666.675781 717.835938 674.5 715.257812 681.785156 L 710.332031 695.675781 C 708.8125 699.945312 704.757812 702.8125 700.230469 702.8125 L 695.007812 702.8125 L 695.007812 721.546875 C 695.007812 724.945312 692.25 727.695312 688.859375 727.695312 L 638.347656 727.695312 C 634.949219 727.695312 632.199219 724.945312 632.199219 721.546875 L 632.199219 646.21875 L 695.007812 646.21875 Z M 411.679688 634.160156 C 411.679688 623.832031 401.792969 615.453125 389.601562 615.453125 C 377.410156 615.453125 367.523438 623.832031 367.523438 634.160156 C 367.523438 644.492188 377.410156 652.863281 389.601562 652.863281 C 401.792969 652.863281 411.679688 644.492188 411.679688 634.160156 Z M 489.777344 551.734375 C 490.503906 531.976562 497.867188 516.78125 498.203125 516.105469 C 498.617188 515.25 499.648438 514.894531 500.511719 515.3125 C 501.355469 515.738281 501.710938 516.769531 501.292969 517.621094 C 501.210938 517.78125 493.976562 532.753906 493.226562 551.734375 L 499.699219 551.734375 C 504.214844 551.734375 507.839844 555.46875 507.6875 559.984375 L 502.933594 703.773438 C 502.792969 708.085938 499.257812 711.5 494.945312 711.5 L 277.742188 711.5 C 273.429688 711.5 269.902344 708.085938 269.757812 703.773438 L 265 559.984375 C 264.855469 555.46875 268.472656 551.734375 272.996094 551.734375 L 284.960938 551.734375 C 285.410156 542.59375 279.128906 528.789062 279.066406 528.652344 C 278.667969 527.785156 279.039062 526.765625 279.90625 526.367188 C 280.773438 525.96875 281.792969 526.347656 282.191406 527.207031 C 282.46875 527.820312 288.804688 541.746094 288.40625 551.734375 L 383.769531 551.734375 L 383.339844 520.707031 C 383.296875 517.660156 384.933594 514.839844 387.609375 513.367188 L 390.5625 511.742188 L 371.679688 502.628906 C 368.1875 500.855469 365.128906 498.941406 362.515625 501.566406 L 353.5625 510.558594 C 351.886719 512.238281 349.015625 511.089844 348.964844 508.710938 L 348.34375 478.535156 C 347.710938 473.257812 359.347656 450.410156 359.347656 450.410156 C 359.347656 450.410156 364.996094 487.695312 391.371094 511.292969 L 397.09375 508.140625 C 422.828125 487.304688 427.753906 448.058594 427.753906 448.058594 C 427.753906 448.058594 437.953125 470.085938 437.371094 475.359375 L 439.074219 502.40625 C 439.226562 504.804688 436.519531 506.300781 434.570312 504.898438 L 432.363281 503.316406 C 428.132812 500.269531 421.867188 499.566406 416.65625 501.539062 L 401.355469 507.792969 L 401.355469 551.734375 Z M 799.65625 728.082031 L 503.476562 728.082031 L 504.828125 717.128906 C 505.222656 715.617188 504.082031 714.144531 502.519531 714.144531 L 264.433594 714.144531 C 262.195312 714.144531 260.5625 716.253906 261.125 718.425781 L 262.195312 728.082031 L 113.265625 728.082031 L 115.484375 722.871094 L 58.671875 722.871094 L 60.898438 728.082031 L 10.402344 728.082031 C 4.804688 728.082031 0.269531 732.617188 0.269531 738.210938 L 0.269531 751.921875 C 0.269531 757.519531 4.804688 762.054688 10.402344 762.054688 L 67.5 762.054688 L 67.5 809.9375 L 740.355469 809.9375 L 740.355469 762.054688 L 799.65625 762.054688 C 805.246094 762.054688 809.78125 757.519531 809.78125 751.921875 L 809.78125 738.210938 C 809.78125 732.617188 805.246094 728.082031 799.65625 728.082031 Z M 398.636719 426.714844 C 402.371094 425.363281 397.019531 414.882812 394.269531 409.980469 C 393.667969 408.914062 392.195312 409.015625 391.75 410.148438 C 389.917969 414.894531 386.304688 424.46875 386.339844 426.355469 C 386.375 428.890625 393.757812 428.492188 398.636719 426.714844 Z M 374.113281 394.367188 C 372.351562 394.367188 370.921875 396.558594 370.921875 399.257812 C 370.921875 401.957031 372.351562 404.144531 374.113281 404.144531 C 375.878906 404.144531 377.308594 401.957031 377.308594 399.257812 C 377.308594 396.558594 375.878906 394.367188 374.113281 394.367188 Z M 414.257812 394.367188 C 412.492188 394.367188 411.058594 396.558594 411.058594 399.257812 C 411.058594 401.957031 412.492188 404.144531 414.257812 404.144531 C 416.015625 404.144531 417.445312 401.957031 417.445312 399.257812 C 417.445312 396.558594 416.015625 394.367188 414.257812 394.367188 Z M 391.308594 482.664062 C 397.335938 484.496094 422.523438 459.1875 427.296875 448.589844 C 420.601562 456.703125 409.445312 460.890625 396.847656 460.890625 L 388.296875 460.890625 C 377.3125 460.890625 367.429688 457.707031 360.632812 451.519531 C 369.148438 461.507812 386.355469 481.144531 391.308594 482.664062 Z M 355.78125 445.757812 C 355.78125 445.757812 355.820312 445.808594 355.886719 445.890625 C 355.855469 445.84375 355.839844 445.800781 355.804688 445.757812 Z M 604.949219 214.882812 C 604.949219 217.417969 607.003906 219.476562 609.539062 219.476562 C 612.078125 219.476562 614.132812 217.417969 614.132812 214.882812 C 614.132812 212.347656 612.078125 210.292969 609.539062 210.292969 C 607.003906 210.292969 604.949219 212.347656 604.949219 214.882812 Z M 622.859375 214.882812 C 622.859375 217.417969 624.921875 219.476562 627.449219 219.476562 C 629.992188 219.476562 632.046875 217.417969 632.046875 214.882812 C 632.046875 212.347656 629.992188 210.292969 627.449219 210.292969 C 624.921875 210.292969 622.859375 212.347656 622.859375 214.882812 Z M 641.066406 214.882812 C 641.066406 217.417969 643.125 219.476562 645.664062 219.476562 C 648.199219 219.476562 650.253906 217.417969 650.253906 214.882812 C 650.253906 212.347656 648.199219 210.292969 645.664062 210.292969 C 643.125 210.292969 641.066406 212.347656 641.066406 214.882812 Z M 557.828125 214.882812 C 557.828125 212.347656 555.773438 210.292969 553.238281 210.292969 C 550.703125 210.292969 548.648438 212.347656 548.648438 214.882812 C 548.648438 217.417969 550.703125 219.476562 553.238281 219.476562 C 555.773438 219.476562 557.828125 217.417969 557.828125 214.882812 Z M 530.566406 227.550781 L 526.171875 227.550781 L 526.171875 200.972656 L 530.566406 200.972656 L 530.566406 194.558594 C 530.566406 193.414062 531.496094 192.492188 532.636719 192.492188 L 557.097656 192.492188 L 602.394531 181.191406 C 603.976562 180.792969 605.582031 181.753906 605.972656 183.332031 L 606.734375 186.363281 C 607.125 187.945312 606.164062 189.542969 604.582031 189.941406 L 594.363281 192.492188 L 645.746094 192.492188 L 645.746094 131.464844 C 645.746094 129.832031 647.066406 128.511719 648.691406 128.511719 L 651.816406 128.511719 C 653.449219 128.511719 654.769531 129.832031 654.769531 131.464844 L 654.769531 192.492188 L 670.824219 192.492188 C 671.964844 192.492188 672.894531 193.414062 672.894531 194.558594 L 672.894531 200.972656 L 676.960938 200.972656 L 676.960938 227.550781 L 672.894531 227.550781 L 672.894531 235.207031 C 672.894531 236.351562 671.964844 237.277344 670.824219 237.277344 L 532.636719 237.277344 C 531.496094 237.277344 530.566406 236.351562 530.566406 235.207031 Z M 270.605469 230.460938 L 427.011719 230.460938 L 427.011719 138.09375 L 270.605469 138.09375 Z M 431.09375 184.277344 C 431.09375 186.949219 433.269531 189.125 435.941406 189.125 C 438.617188 189.125 440.792969 186.949219 440.792969 184.277344 C 440.792969 181.601562 438.617188 179.433594 435.941406 179.433594 C 433.269531 179.433594 431.09375 181.601562 431.09375 184.277344 Z M 251.042969 230.484375 L 251.042969 138.066406 C 251.042969 132.71875 255.382812 128.386719 260.734375 128.386719 L 436.972656 128.386719 C 442.324219 128.386719 446.65625 132.71875 446.65625 138.066406 L 446.65625 230.484375 C 446.65625 235.835938 442.324219 240.167969 436.972656 240.167969 L 260.734375 240.167969 C 255.382812 240.167969 251.042969 235.835938 251.042969 230.484375 Z M 22.574219 347.691406 L 22.574219 350.613281 L 25.496094 350.613281 L 25.496094 347.691406 Z M 30.972656 347.691406 L 30.972656 350.613281 L 33.894531 350.613281 L 33.894531 347.691406 Z M 95.152344 331.648438 C 95.152344 330.003906 94.414062 328.890625 92.925781 328.304688 C 94.238281 327.488281 94.894531 326.410156 94.894531 325.070312 C 94.894531 323.832031 94.445312 322.8125 93.546875 322.003906 C 92.648438 321.199219 91.175781 320.800781 89.128906 320.800781 L 85.617188 320.800781 L 85.617188 336.042969 L 90.132812 336.042969 C 91.644531 336.042969 92.859375 335.636719 93.773438 334.828125 C 94.699219 334.027344 95.152344 332.964844 95.152344 331.648438 Z M 83.46875 320.800781 L 75.214844 320.800781 L 75.214844 324.28125 L 77.578125 324.28125 L 77.578125 336.042969 L 81.082031 336.042969 L 81.082031 324.28125 L 83.46875 324.28125 Z M 70.953125 320.800781 L 65.714844 320.800781 L 65.714844 324.003906 L 67.65625 324.003906 L 67.65625 336.042969 L 70.953125 336.042969 Z M 141.171875 435.308594 L 127.265625 435.308594 C 127.429688 435.574219 127.550781 435.867188 127.550781 436.203125 L 127.550781 457.816406 C 127.550781 463.085938 125.484375 468.011719 121.734375 471.691406 C 118.066406 475.300781 113.238281 477.273438 108.113281 477.273438 C 107.992188 477.273438 107.878906 477.269531 107.757812 477.269531 L 46.390625 476.207031 C 36.019531 476.027344 27.628906 467.765625 27.285156 457.394531 L 26.835938 380.890625 L 20.621094 380.890625 C 19.539062 380.890625 18.660156 380.011719 18.660156 378.933594 L 18.660156 356.40625 L 27.632812 356.40625 L 27.632812 347.691406 L 29.304688 347.691406 L 29.304688 356.40625 L 38.277344 356.40625 L 38.277344 378.933594 C 38.277344 380.011719 37.398438 380.890625 36.324219 380.890625 L 30.277344 380.890625 L 30.726562 457.324219 C 31.003906 465.816406 37.910156 472.613281 46.445312 472.761719 L 107.820312 473.828125 C 112.121094 473.886719 116.230469 472.273438 119.316406 469.238281 C 122.402344 466.203125 124.105469 462.148438 124.105469 457.816406 L 124.105469 436.203125 C 124.105469 435.867188 124.230469 435.574219 124.390625 435.308594 L 60.484375 435.308594 C 57.179688 435.308594 54.492188 432.628906 54.492188 429.316406 L 54.492188 318.867188 C 54.492188 315.558594 57.179688 312.871094 60.484375 312.871094 L 141.171875 312.871094 C 144.488281 312.871094 147.167969 315.558594 147.167969 318.867188 L 147.167969 429.316406 C 147.167969 432.628906 144.488281 435.308594 141.171875 435.308594 Z M 89.359375 329.777344 L 89.070312 329.777344 L 89.070312 333.078125 C 89.949219 333.058594 90.601562 332.925781 91.042969 332.667969 C 91.480469 332.414062 91.695312 331.996094 91.695312 331.40625 C 91.695312 330.320312 90.917969 329.777344 89.359375 329.777344 Z M 91.390625 325.40625 C 91.390625 324.785156 91.203125 324.355469 90.835938 324.117188 C 90.46875 323.871094 89.878906 323.742188 89.070312 323.722656 L 89.070312 327.011719 C 90.613281 326.976562 91.390625 326.4375 91.390625 325.40625 Z M 32.839844 236.695312 C 34.039062 237.503906 35.53125 237.757812 36.9375 237.382812 L 39.730469 236.636719 C 39.65625 236.46875 39.578125 236.300781 39.523438 236.113281 L 20.523438 168.65625 C 20.488281 168.535156 20.480469 168.410156 20.460938 168.296875 L 17.566406 169.238281 C 16.625 169.546875 15.789062 170.109375 15.195312 170.902344 C 12.714844 174.164062 7.410156 184.289062 13.265625 206.546875 C 18.128906 225.039062 28.449219 233.722656 32.839844 236.695312 Z M 56.984375 231.199219 C 57.050781 231.464844 57.097656 231.722656 57.117188 231.988281 L 58.152344 231.710938 C 60.847656 230.992188 62.425781 228.195312 61.648438 225.515625 L 44.410156 165.886719 C 43.625 163.179688 40.753906 161.65625 38.074219 162.535156 L 37.511719 162.71875 C 37.699219 163.035156 37.871094 163.367188 37.980469 163.734375 Z M 140.40625 238.425781 L 143.203125 239.171875 C 144.605469 239.546875 146.097656 239.292969 147.300781 238.476562 C 151.691406 235.511719 162.011719 226.828125 166.875 208.339844 C 172.730469 186.078125 167.429688 175.953125 164.949219 172.691406 C 164.351562 171.898438 163.515625 171.335938 162.574219 171.027344 L 159.675781 170.085938 C 159.65625 170.203125 159.652344 170.324219 159.613281 170.445312 L 140.617188 237.910156 C 140.558594 238.09375 140.484375 238.257812 140.40625 238.425781 Z M 118.488281 227.304688 L 135.726562 167.675781 C 136.511719 164.96875 139.382812 163.449219 142.066406 164.324219 L 142.628906 164.507812 C 142.4375 164.824219 142.265625 165.160156 142.164062 165.53125 L 123.15625 232.988281 C 123.085938 233.253906 123.042969 233.519531 123.023438 233.78125 L 121.984375 233.5 C 119.292969 232.78125 117.710938 229.984375 118.488281 227.304688 " fill-opacity="1" fill-rule="nonzero"/></g></svg>